<?xml version="1.0" standalone="no"?>
<!DOCTYPE svg PUBLIC "-//W3C//DTD SVG 20010904//EN"
 "http://www.w3.org/TR/2001/REC-SVG-20010904/DTD/svg10.dtd">
<svg version="1.0" xmlns="http://www.w3.org/2000/svg"
 width="24px" height="24px" viewBox="0 0 24 24"
 preserveAspectRatio="xMidYMid meet">

<g transform="translate(0.000000,638.000000) scale(0.100000,-0.100000)"
fill="#000000" stroke="none">
<path d="M3930 6374 c-19 -2 -82 -9 -140 -15 -372 -39 -775 -175 -1106 -373
-353 -210 -678 -518 -903 -856 -229 -343 -377 -727 -442 -1151 -33 -208 -33
-590 0 -798 65 -424 213 -808 442 -1151 106 -159 202 -275 358 -430 452 -451
1005 -719 1651 -801 137 -18 513 -18 650 0 646 82 1199 350 1651 801 373 372
612 788 739 1286 67 260 84 400 84 694 0 294 -17 434 -84 694 -127 498 -366
914 -739 1286 -443 441 -985 709 -1610 796 -102 14 -479 27 -551 18z m345 -54
c460 -29 867 -154 1254 -385 738 -441 1224 -1198 1322 -2060 16 -141 16 -449
0 -590 -98 -862 -584 -1619 -1322 -2060 -872 -521 -1956 -521 -2828 0 -738
441 -1224 1198 -1322 2060 -16 141 -16 449 0 590 119 1042 799 1913 1780 2280
279 104 554 156 926 174 17 0 102 -4 190 -9z"/>
</g>
</svg>
